<mxfile host="app.diagrams.net" modified="2021-08-24T08:55:25.696Z" agent="5.0 (Windows NT 10.0; WOW64) AppleWebKit/537.36 (KHTML, like Gecko) Chrome/86.0.4240.198 Safari/537.36" etag="vwgv1W2SkSk81euM7KHK" version="14.9.8" type="github">
  <diagram id="jOpnW5fyz-hOX74ctkls" name="Page-1">
    <mxGraphModel dx="942" dy="507" grid="1" gridSize="10" guides="1" tooltips="1" connect="1" arrows="1" fold="1" page="1" pageScale="1" pageWidth="827" pageHeight="1169" math="0" shadow="0">
      <root>
        <mxCell id="0" />
        <mxCell id="1" parent="0" />
        <mxCell id="zqBPPBoLZsMew4Y-dDUJ-9" value="" style="rounded=0;whiteSpace=wrap;html=1;shadow=0;strokeColor=#82b366;opacity=30;fillColor=#F2931E;" vertex="1" parent="1">
          <mxGeometry x="380" y="380" width="230" height="240" as="geometry" />
        </mxCell>
        <mxCell id="zqBPPBoLZsMew4Y-dDUJ-2" value="" style="rounded=0;whiteSpace=wrap;html=1;shadow=0;strokeColor=#82b366;fillColor=#10739E;opacity=30;" vertex="1" parent="1">
          <mxGeometry x="60" y="380" width="230" height="240" as="geometry" />
        </mxCell>
        <mxCell id="zqBPPBoLZsMew4Y-dDUJ-1" value="勋章管理" style="rounded=1;whiteSpace=wrap;html=1;shadow=0;strokeColor=#314354;fontColor=#ffffff;fillColor=#23445D;glass=0;" vertex="1" parent="1">
          <mxGeometry x="130" y="420" width="120" height="40" as="geometry" />
        </mxCell>
        <mxCell id="zqBPPBoLZsMew4Y-dDUJ-3" value="积分配置模块" style="text;html=1;strokeColor=none;fillColor=none;align=center;verticalAlign=middle;whiteSpace=wrap;rounded=0;shadow=0;" vertex="1" parent="1">
          <mxGeometry x="70" y="390" width="80" height="20" as="geometry" />
        </mxCell>
        <mxCell id="zqBPPBoLZsMew4Y-dDUJ-7" value="积分项目及场景管理" style="rounded=1;whiteSpace=wrap;html=1;shadow=0;strokeColor=#314354;fontColor=#ffffff;fillColor=#23445D;" vertex="1" parent="1">
          <mxGeometry x="130" y="490" width="120" height="40" as="geometry" />
        </mxCell>
        <mxCell id="zqBPPBoLZsMew4Y-dDUJ-8" value="积分等级规则管理" style="rounded=1;whiteSpace=wrap;html=1;shadow=0;strokeColor=#314354;fontColor=#ffffff;fillColor=#23445D;" vertex="1" parent="1">
          <mxGeometry x="130" y="560" width="120" height="40" as="geometry" />
        </mxCell>
        <mxCell id="zqBPPBoLZsMew4Y-dDUJ-10" value="积分记录模块" style="text;html=1;strokeColor=none;fillColor=none;align=center;verticalAlign=middle;whiteSpace=wrap;rounded=0;shadow=0;" vertex="1" parent="1">
          <mxGeometry x="394" y="390" width="80" height="20" as="geometry" />
        </mxCell>
        <mxCell id="zqBPPBoLZsMew4Y-dDUJ-11" value="&lt;font color=&quot;#ffffff&quot;&gt;积分记录和累积&lt;/font&gt;" style="rounded=1;whiteSpace=wrap;html=1;shadow=0;strokeColor=#d79b00;glass=0;fillColor=#412f1f;" vertex="1" parent="1">
          <mxGeometry x="450" y="420" width="120" height="40" as="geometry" />
        </mxCell>
        <mxCell id="zqBPPBoLZsMew4Y-dDUJ-12" value="&lt;font color=&quot;#ffffff&quot;&gt;勋章记录和应用&lt;/font&gt;" style="rounded=1;whiteSpace=wrap;html=1;shadow=0;strokeColor=#d79b00;glass=0;fillColor=#412f1f;" vertex="1" parent="1">
          <mxGeometry x="450" y="490" width="120" height="40" as="geometry" />
        </mxCell>
        <mxCell id="zqBPPBoLZsMew4Y-dDUJ-14" value="" style="rounded=0;whiteSpace=wrap;html=1;shadow=0;strokeColor=#82b366;opacity=30;fillColor=#d5e8d4;" vertex="1" parent="1">
          <mxGeometry x="700" y="380" width="230" height="240" as="geometry" />
        </mxCell>
        <mxCell id="zqBPPBoLZsMew4Y-dDUJ-15" value="积分显示模块" style="text;html=1;strokeColor=none;fillColor=none;align=center;verticalAlign=middle;whiteSpace=wrap;rounded=0;shadow=0;" vertex="1" parent="1">
          <mxGeometry x="710" y="390" width="80" height="20" as="geometry" />
        </mxCell>
        <mxCell id="zqBPPBoLZsMew4Y-dDUJ-16" value="&lt;font color=&quot;#ffffff&quot;&gt;个人积分勋章展示&lt;/font&gt;" style="rounded=1;whiteSpace=wrap;html=1;shadow=0;glass=0;fillColor=#122e29;strokeColor=#67AB9F;" vertex="1" parent="1">
          <mxGeometry x="770" y="420" width="120" height="40" as="geometry" />
        </mxCell>
        <mxCell id="zqBPPBoLZsMew4Y-dDUJ-17" value="&lt;font color=&quot;#ffffff&quot;&gt;集体积分展示&lt;/font&gt;" style="rounded=1;whiteSpace=wrap;html=1;shadow=0;glass=0;fillColor=#122e29;strokeColor=#67AB9F;" vertex="1" parent="1">
          <mxGeometry x="770" y="490" width="120" height="40" as="geometry" />
        </mxCell>
        <mxCell id="zqBPPBoLZsMew4Y-dDUJ-18" value="应用" style="html=1;shadow=0;dashed=0;align=center;verticalAlign=middle;shape=mxgraph.arrows2.arrow;dy=0;dx=30;notch=26;rounded=1;glass=0;strokeColor=#67AB9F;fillColor=#122e29;gradientColor=none;opacity=30;" vertex="1" parent="1">
          <mxGeometry x="310" y="470" width="56" height="60" as="geometry" />
        </mxCell>
        <mxCell id="zqBPPBoLZsMew4Y-dDUJ-19" value="计算" style="html=1;shadow=0;dashed=0;align=center;verticalAlign=middle;shape=mxgraph.arrows2.arrow;dy=0;dx=30;notch=26;rounded=1;glass=0;strokeColor=#67AB9F;fillColor=#122e29;gradientColor=none;opacity=30;" vertex="1" parent="1">
          <mxGeometry x="630" y="470" width="56" height="60" as="geometry" />
        </mxCell>
      </root>
    </mxGraphModel>
  </diagram>
</mxfile>
